/* XPM */
static char *a493f49432414302de8e4f1be72572a3C0CppPvU4gnRHENI[] = {
/* columns rows colors chars-per-pixel */
"30 30 187 2 ",
"   c #020507",
".  c #0B0A0B",
"X  c #0A0608",
"o  c #130D0E",
"O  c #190D0F",
"+  c #0F0F10",
"@  c #130F10",
"#  c #1A0F10",
"$  c #141214",
"%  c #1A1415",
"&  c #161619",
"*  c #191619",
"=  c #191A1C",
"-  c #200D0E",
";  c #3E0E0F",
":  c #250E10",
">  c #2A1E1D",
",  c #291618",
"<  c #351515",
"1  c #351B1C",
"2  c #351516",
"3  c #2E201F",
"4  c #36211F",
"5  c #1E1F21",
"6  c #291E21",
"7  c #2D2223",
"8  c #2C2C2E",
"9  c #272529",
"0  c #342423",
"q  c #392624",
"w  c #3A2927",
"e  c #35292D",
"r  c #3B2B2B",
"t  c #2D2D31",
"y  c #362F32",
"u  c #373539",
"i  c #3C3439",
"p  c #471516",
"a  c #4A1516",
"s  c #5C1D1E",
"d  c #5A201F",
"f  c #432E2C",
"g  c #4E2125",
"h  c #572424",
"j  c #45302E",
"k  c #49312E",
"l  c #503627",
"z  c #453231",
"x  c #4C3432",
"c  c #443B3F",
"v  c #4C3A3E",
"b  c #48363B",
"n  c #513633",
"m  c #553936",
"M  c #593B37",
"N  c #5A3C39",
"B  c #533C3D",
"V  c #692C2C",
"C  c #762526",
"Z  c #6D302E",
"A  c #653535",
"S  c #773432",
"D  c #56403F",
"F  c #5B413E",
"G  c #62423E",
"H  c #4F3F46",
"J  c #413E43",
"K  c #503F47",
"L  c #7E3D40",
"P  c #454349",
"I  c #49474D",
"U  c #4B4A4F",
"Y  c #434A4F",
"T  c #524046",
"R  c #5C4344",
"E  c #544148",
"W  c #5D4649",
"Q  c #444B50",
"!  c #564C52",
"~  c #4D555B",
"^  c #4D5157",
"/  c #535256",
"(  c #58575C",
")  c #53595F",
"_  c #56565B",
"`  c #654643",
"'  c #664946",
"]  c #6C4A46",
"[  c #62484C",
"{  c #6C4C4A",
"}  c #60474B",
"|  c #724E4A",
" . c #77514C",
".. c #79524D",
"X. c #6C595F",
"o. c #7C5552",
"O. c #565D63",
"+. c #6E5F65",
"@. c #59646B",
"#. c #5B6367",
"$. c #616162",
"%. c #68646B",
"&. c #66646B",
"*. c #6D6B72",
"=. c #626D74",
"-. c #6E7274",
";. c #75747C",
":. c #7E7072",
">. c #802829",
",. c #962D2C",
"<. c #983332",
"1. c #A12F2F",
"2. c #A63D3D",
"3. c #A83636",
"4. c #B33434",
"5. c #BD5F3B",
"6. c #B25A26",
"7. c #9D3F42",
"8. c #8B4441",
"9. c #844E4A",
"0. c #834441",
"q. c #9C4243",
"w. c #9D494C",
"e. c #934542",
"r. c #81564F",
"t. c #815652",
"y. c #855954",
"u. c #8A5B55",
"i. c #A24A4D",
"p. c #AF5643",
"a. c #BC5E48",
"s. c #BA5E59",
"d. c #BE6444",
"f. c #965B61",
"g. c #886C62",
"h. c #90656C",
"j. c #856C72",
"k. c #8C7277",
"l. c #8A747C",
"z. c #947B79",
"x. c #BB7071",
"c. c #C57042",
"v. c #C46162",
"b. c #7D7A83",
"n. c #767981",
"m. c #857F88",
"M. c #778189",
"N. c #84818A",
"B. c #868084",
"V. c #92858D",
"C. c #898791",
"Z. c #868D97",
"A. c #8D8E98",
"S. c #8D939C",
"D. c #AB8F88",
"F. c #A89095",
"G. c #8E95A0",
"H. c #8D99A3",
"J. c #939BA5",
"K. c #9599A3",
"L. c #93A3AC",
"P. c #97A7B1",
"I. c #9AABB5",
"U. c #9CAFBA",
"Y. c #97A9B3",
"T. c #9DB0BB",
"R. c #A0A3A4",
"E. c #A2AFB7",
"W. c #A2B3BC",
"Q. c #B6BABA",
"!. c #DBBFBE",
"~. c #ADBCC5",
"^. c #A5B7C1",
"/. c #C9D1D7",
"(. c #D8D8D8",
"). c #C8CACA",
"_. c #F3D9D9",
"`. c #F3D6D6",
"'. c #DADEE0",
"]. c #DDE5E9",
"[. c #D8E0E4",
"{. c #E0E0E1",
"}. c #E5E7E9",
"|. c #E8E5E5",
" X c #E6EDF0",
".X c #E9EEF1",
"XX c #F6F7F6",
/* pixels */
"H R |  . . . . .{ w X       $ b R |  . . . . . ... .W P T T ",
"W } | .. . . ...{ 0 . : < < 2 r D |  . . . . . . . .{ } E T ",
"{ |  . . . . ...] 0 o s ,.,.C 2 3 '  . . . . . .....r.o.W T ",
".. . . . . . . .| n q s C w.L : o r x x x x G  . ...u.y.[ T ",
".. . . . . . . . . .K 4 6 +.+.6   + & $ + + j |  ...y.o.[ T ",
" . ... . . . . ...A n y P *.n.O.Y Y Y Y Q Y D x F ..u.y.W T ",
" . . . . . . . .] q 6 ^ b.m.C.G.L.L.L.L.P.H.~ % j ..u.y.[ T ",
" . . . . . . .N f i I n.K.G.H.Y.U.U.U.U.^.Y.) + j  .u.t.[ I ",
" . . . . ...| f $ I N.J.U.T.W.W.W.W.W.W.W.U.) $ f ..u.y.[ K ",
".... . . ...| 4 $ ) J.Y.W./.[.].].}.].]. X'.-.% k y.u.y.' K ",
"|  .........| q $ @.Y.U.W.}.XX}.{.{.'.{.}.(.-.% x u.u.t.[ K ",
"G ] r.u.y.u.y.f * @.U.T.~..X{.B./ ( ( #.$._ 8 o n u...[ R K ",
"D ' o.y.y.y.r.f % O.P.I.~..X(.$.8 t 5 . * 8 = o n t.' K K K ",
"T R ' ' ' ' G 0 $ / A.P.~..XXX).Q.Q.*.& Q R.$.$ w ` G K K K ",
"T T F F F R F 7 + i *.Z.E./.{._._._.D.l g.!.:.$ q R R H K K ",
"T R { |  .{ ] w . $ t %.A.K.F.x.v.v.d.6.5.s.A @ f ' R H I T ",
"W [  . . . . .n > . @ K h.h.f.i.7.i.p.c.a.7.g O f | { } E T ",
"| |  . . . . .| N > @ V 2.2.i.f.k.k.k.z.z.j.J @ k  .t.o.} K ",
" . . . ..... .r.7.6 @ A i.i.f.m.K.G.G.S.J.Z.I $ f  .u.y.[ K ",
" . . . ...|  .e.<.p $ ! m.z.m.K.P.P.P.P.I.J.~ $ f  .u.t.[ K ",
" . . . . .9.8.2.1.a % _ N.C.b.=.@.@.@.@.M.S.^ @ f  .u.y.} H ",
" . . . . .8.3.4.1.a % _ m.N.%.t $ $ $ = I ;.P $ k  .u.r.} K ",
" . . . . .e.3.4.1.a % O.b.( b h ; X & i P J y 6 k ` r.y.[ K ",
" . . . .| 0.1.4.,.p & / %.t 2 C C O t %.U * > k k M | t.} K ",
".. . .] G A S S Z < + 8 u 7 1 V h O = u y 3 r k n M G | } H ",
"|  .r.G m l n n k 3 o . % 7 y k w % . o 3 z n n M N M N E K ",
"G | y. .M m m F M k q 3 7 e y r f w 0 q j m M M N m k x B H ",
"F ` .. .F F m m m M m j r e e e f n M m m m m M m m j z J T ",
"T R ` ` F m j j j j j r e e e e r f k k j j r j j j b v T T ",
"T T D F D x r w w w w e e e e e e e q q w w w w w r b T T T "
};
